<svg width="100" height="100" viewBox="0 0 100 100" fill="none" xmlns="http://www.w3.org/2000/svg">
<g clip-path="url(#clip0_1_26)">
<rect width="100" height="100" rx="20" fill="#2D2B2B"/>
<path d="M55.8564 38.4156V74.5619H41.0479V74.9373C41.0479 77.411 40.4178 79.7237 39.1642 81.8823C37.9039 84.0409 36.2079 85.7772 34.0895 87.1045C31.9644 88.4318 29.6584 89.1692 27.1646 89.3033C28.3176 88.1905 29.2494 87.0106 29.9533 85.7638C30.6572 84.5839 31.1131 83.3772 31.3343 82.1371C31.5488 80.9036 31.6427 79.4623 31.6226 77.8333V47.2309C31.6226 45.984 32.1186 44.898 33.1175 43.9796C34.1163 43.0612 35.2962 42.2367 36.657 41.5127C37.7028 40.9228 38.5609 40.4066 39.2312 39.9641C39.8949 39.5217 40.5049 39.0055 41.0479 38.4156V68.8101H46.4645V47.2309C46.4645 45.984 46.9606 44.898 47.9595 43.9796C48.9583 43.0612 50.1248 42.2501 51.4655 41.5462C52.5113 40.9295 53.3693 40.4066 54.033 39.9641C54.7034 39.5217 55.3134 39.0055 55.8564 38.4156Z" fill="white"/>
<path d="M56.7748 26.0942C56.0709 25.3903 55.2196 25.035 54.2207 25.035C53.2219 25.035 52.3638 25.3903 51.6331 26.0942C50.9292 26.8182 50.5806 27.683 50.5806 28.6952C50.5806 29.7075 50.9292 30.5722 51.6331 31.2962C52.3638 32.0001 53.2219 32.3554 54.2207 32.3554C55.2196 32.3554 56.0709 32.0001 56.7748 31.2962C57.4787 30.5924 57.8675 29.7075 57.8675 28.6952C57.8675 27.683 57.4988 26.8182 56.7748 26.0942ZM53.0341 18.4319C52.3303 17.728 51.4789 17.3794 50.48 17.3794C49.4812 17.3794 48.6164 17.728 47.8924 18.4319C47.1885 19.1559 46.8332 20.0273 46.8332 21.0396C46.8332 22.0519 47.1885 22.9166 47.8924 23.6406C48.6164 24.3445 49.4812 24.6931 50.48 24.6931C51.4789 24.6931 52.3303 24.3445 53.0341 23.6406C53.7581 22.9166 54.1201 22.0452 54.1201 21.0396C54.1201 20.034 53.7581 19.1559 53.0341 18.4319ZM49.2533 26.0942C48.5494 25.3903 47.698 25.035 46.6992 25.035C45.7003 25.035 44.8422 25.3903 44.1115 26.0942C43.4076 26.8182 43.0591 27.683 43.0591 28.6952C43.0591 29.7075 43.4076 30.5722 44.1115 31.2962C44.8422 32.0001 45.7003 32.3554 46.6992 32.3554C47.698 32.3554 48.5494 32.0001 49.2533 31.2962C49.9572 30.5924 50.3393 29.7075 50.3393 28.6952C50.3393 27.683 49.9773 26.8182 49.2533 26.0942Z" fill="white"/>
<path d="M70.3565 25.3098V74.5619H60.9646V34.1252C60.9646 32.8783 61.4607 31.7923 62.4595 30.8739C63.4584 29.9555 64.6248 29.131 65.9656 28.407C67.0114 27.817 67.8627 27.2941 68.5331 26.8383C69.2035 26.3824 69.8068 25.873 70.3565 25.3031V25.3098ZM71.5498 19.5916H67.3264V13.632L67.6683 13.7661C67.9834 13.9002 68.2582 14.0946 68.4862 14.3426C68.8281 14.6845 68.9957 15.1739 68.9957 15.804V16.347C68.9957 16.957 68.8147 17.5135 68.4527 18.0162C69.1565 17.9693 69.8001 17.8017 70.39 17.5067C70.9799 17.2118 71.4224 16.7895 71.7173 16.2465C72.1062 15.5627 72.0928 14.8387 71.6838 14.0678C71.4358 13.5717 71.0403 13.1359 70.4906 12.7739C70.0816 12.4991 69.4046 12.2175 68.4459 11.9226C68.2649 11.8756 68.1309 11.8354 68.037 11.7885L66.8438 11.4131L66.2672 11.212L65.3824 10.9371C65.2684 10.8902 65.1075 10.8366 64.9064 10.7695C64.7053 10.7025 64.5511 10.6556 64.464 10.6355C64.4438 10.6355 64.417 10.6221 64.3969 10.6019C64.169 10.555 64.055 10.5215 64.055 10.5014V19.5916H62.6607V22.0116H71.5766V19.5916H71.5431H71.5498Z" fill="white"/>
</g>
<defs>
<clipPath id="clip0_1_26">
<rect width="100" height="100" fill="white"/>
</clipPath>
</defs>
</svg>
