<svg xmlns="http://www.w3.org/2000/svg" viewBox="0 0 467.1 151.1" fill="#275fa4">
  <path
    d="M388.2 83.5c1.5-1.4 3.2-2.6 5.3-3.7l3.8-2.3a15 15 0 0 0 2.7-2.3v54.5c0 3.7-1 7.1-2.8 10.3a22.3 22.3 0 0 1-18 11 23 23 0 0 0 4.2-5.2 16 16 0 0 0 2.1-5.4c.3-1.9.5-4 .4-6.4V88.3c0-1.8.8-3.5 2.3-4.8Z"
    class="cls-1" />
  <path
    d="M410.3 83.5c1.5-1.4 3.2-2.6 5.2-3.6l3.9-2.4a15 15 0 0 0 2.7-2.3v54h-23.2v-8.7h9.2V88.4c0-2 .7-3.5 2.2-4.9Zm3.6-22.8c0 1.5-.6 2.8-1.6 3.9s-2.4 1.5-3.9 1.5a5.3 5.3 0 0 1-5.4-5.4 5.4 5.4 0 0 1 5.4-5.5c1.5 0 2.8.6 3.9 1.6 1 1 1.6 2.4 1.6 3.9Zm5.6-11.4a5 5 0 0 1-1.6 3.8 5.5 5.5 0 0 1-7.7 0c-1-1-1.6-2.3-1.6-3.8a5.4 5.4 0 0 1 5.5-5.5 5 5 0 0 1 3.8 1.6c1 1 1.6 2.4 1.6 3.9Zm5.6 11.4c0 1.5-.6 2.8-1.6 3.9S421 66 419.7 66s-2.8-.5-3.9-1.5c-1-1.1-1.6-2.4-1.6-4s.5-2.7 1.6-3.8a5.5 5.5 0 0 1 9.3 3.9Zm18.6-5.1v73.5h-14V68.8c0-1.9.8-3.5 2.2-4.9a26 26 0 0 1 5.3-3.6l3.8-2.4a15 15 0 0 0 2.7-2.3Zm1.8-8.5h-6.3v-8.9l.5.2c.5.2.9.5 1.2.9.5.5.8 1.2.8 2.2v.8c0 .9-.3 1.7-.8 2.5 1-.1 2-.4 2.9-.8.8-.4 1.5-1 2-1.9.5-1 .5-2-.1-3.2a5 5 0 0 0-1.8-2 12.3 12.3 0 0 0-3.6-1.4l-1.8-.6-.9-.3-1.3-.4-.7-.3-.7-.1v-.1l-.6-.1V47h-2v3.6h13.2V47Zm-289.3 9c.7.6 1 1.4 1 2.4s-.3 1.7-1 2.3c-.6.7-1.4 1-2.3 1h-1c-1 0-2-.2-3-.5v.5c-.3 2.7-1.3 4.9-3 6.6a13.8 13.8 0 0 1-7.4 3.5l-2.4-6.2c2.2-.4 3.8-1 4.8-1.8s1.5-2 1.5-3.7V40.6h6.6v11.8c0 .7.3 1.4.8 2 .6.5 1.3.8 2 .8h1.1c1 0 1.7.3 2.4 1Z"
    class="cls-1" />
  <path
    d="M151.4 60.8c-.6-.7-1-1.5-1-2.4s.4-1.7 1-2.3c.7-.6 1.5-1 2.4-1h5.9c.3 0 .6 0 .8-.3.2-.2.3-.4.3-.8V40.6h6.6V54c0 1.4-.4 2.7-1 3.9a7.8 7.8 0 0 1-6.8 3.9h-5.8c-1 0-1.7-.4-2.4-1Zm9.5-30c.8.6 1.1 1.5 1.1 2.5s-.3 1.9-1 2.6c-.8.7-1.6 1-2.7 1s-1.8-.3-2.6-1-1-1.6-1-2.6.3-1.9 1-2.6c.8-.7 1.6-1 2.7-1s1.8.3 2.5 1Zm4.5-8.5c.8.7 1.1 1.5 1.1 2.5s-.3 1.9-1 2.6c-.8.7-1.7 1.1-2.7 1.1s-1.8-.4-2.6-1c-.7-.8-1-1.7-1-2.7s.3-1.8 1-2.5 1.6-1.1 2.6-1.1 2 .3 2.6 1Zm4.7 8.4c.7.7 1 1.6 1 2.6s-.3 1.9-1 2.6c-.7.7-1.6 1-2.6 1s-1.9-.3-2.6-1-1.1-1.6-1.1-2.6.4-1.9 1-2.6c.8-.7 1.7-1 2.7-1s1.9.3 2.6 1Zm3.9-.8v-3.3h1.3c0-.6-.1-1.1 0-1.6 0-1.1.5-2 1.4-2.8.8-.7 1.8-1.1 3-1.1 1 0 1.8.2 2.5.7.8.4 1.3 1 1.7 2l-2.5 2c-.3-.6-.6-1-.8-1.1-.2-.2-.5-.3-1-.3a1 1 0 0 0-.7.3 1 1 0 0 0-.3.7c0 .3 0 .5.2.8s.4.4.9.4h4.2v3.3h-10Zm1.4 2.3h6.6v29.6h-6.6V32.2ZM211 42a9.9 9.9 0 0 1 5 8.6v.9a10 10 0 0 1-1.4 5.1 10.5 10.5 0 0 1-8.9 5.2 10.6 10.6 0 0 1-9-5.2 9.8 9.8 0 0 1-1.5-5.1V40.6h10.5c2 0 3.7.4 5.3 1.3Zm-7.7-11.3c.7.7 1 1.6 1 2.6s-.3 1.9-1 2.6-1.6 1-2.6 1-2-.3-2.6-1c-.7-.7-1.1-1.6-1.1-2.6s.4-1.9 1-2.6c.8-.7 1.7-1 2.7-1s1.9.3 2.6 1Zm5.1 23.4c.8-.7 1.1-1.6 1.1-2.7v-.5c0-1-.3-1.8-1-2.6a3.7 3.7 0 0 0-2.8-1.1h-4v4.2c0 1 .4 1.9 1.2 2.6.8.8 1.7 1.2 2.8 1.2s2-.4 2.8-1.1Zm4-23.4c.7.7 1 1.6 1 2.6s-.3 1.9-1 2.6-1.6 1-2.6 1-1.9-.3-2.6-1c-.7-.7-1-1.6-1-2.6s.3-1.9 1-2.6c.7-.7 1.6-1 2.6-1s1.9.3 2.6 1Zm15.7 37.8c-1.9 2-4.6 3.2-8.3 3.3l-2.4-6.2a16 16 0 0 0 4.2-.7c1-.4 1.7-1 2.1-1.7s.6-1.7.6-3V40.6h6.6v19.6c0 3.5-1 6.2-2.8 8.3Zm5.9-13.3h12.5c.6 0 1-.3 1.4-.7.2-.4.4-.8.4-1.1V53l-3.6-12.5 6.3-1.8 3.6 12.5a9 9 0 0 1-1.6 7.3c-.8 1-1.7 1.8-2.9 2.3-1.1.6-2.3.8-3.6.8h-12.4V55Zm29.7 5.5a7.7 7.7 0 0 1-3.8-6.6V32.2h6.6v21.9c0 .2 0 .5.3.7.2.3.5.4.8.4h1.8v6.6h-1.8c-1.4 0-2.7-.4-3.9-1Z"
    class="cls-1" />
  <path
    d="M286.2 56.1a3.3 3.3 0 0 1 0 4.7c-.7.6-1.4 1-2.4 1h-1.1c-2.1 0-4-.7-5.8-2a8.3 8.3 0 0 1-5.4 2H269c-1 0-1.8-.4-2.5-1-.6-.6-1-1.4-1-2.3s.4-1.8 1-2.4 1.5-1 2.5-1h1.6c.7 0 1.3-.2 1.7-.7.5-.4.8-1 .8-1.7v-7.9h6.6v8a3 3 0 0 0 2.9 2.4h1.2a3 3 0 0 1 2.3 1Zm-12.4 9.6c.7-.8 1.6-1.1 2.6-1.1s1.9.4 2.6 1 1.1 1.6 1.1 2.6-.4 2-1 2.6-1.7 1.1-2.7 1.1-1.9-.4-2.6-1-1-1.7-1-2.7.3-1.8 1-2.5Z"
    class="cls-1" />
  <path
    d="M283.4 55.2h1.2c.5 0 .8-.1 1-.3l.1-.8V40.6h11c2 0 3.8.5 5.4 1.5 1.6.9 2.9 2.2 3.8 3.9 1 1.6 1.4 3.5 1.4 5.5v.3a10 10 0 0 1-5.5 8.6 10.5 10.5 0 0 1-11.8-1 7.5 7.5 0 0 1-5.4 2.4h-1.2c-.9 0-1.7-.4-2.3-1-.7-.7-1-1.5-1-2.4a3.3 3.3 0 0 1 3.3-3.2Zm13.2 0a5 5 0 0 0 3-1.1c.7-.8 1.2-1.7 1.2-2.7v-.2a4 4 0 0 0-1.2-2.9 4.5 4.5 0 0 0-3.2-1.1h-4v4.4c0 1.1.4 2 1.2 2.6a5 5 0 0 0 3 1ZM9.7 107.8 8 112.5H.3L11 82.9h8l11.4 29.6h-7.9l-1.6-4.7H9.7ZM15.3 90 12 101.5h6.6L15.2 90Zm21.9 21.6a6.1 6.1 0 0 1-3-5.4v-8.6h-3.8v-6.2h3.8v-6.9h7v6.8h5.4v6.3h-5.3v8l.1.4.4.1h4.9v6.4h-6.4a6 6 0 0 1-3.1-.9ZM69.4 93c1.4 1.3 2 3 2 5.2v14.3h-7V100c0-1-.3-1.9-1-2.5a3 3 0 0 0-2.2-1c-1 0-2 .4-2.6 1.2a4 4 0 0 0-1 2.8v11.9h-7V82.9h7v10.6c.5-.8 1.3-1.4 2.5-1.9s2.5-.7 4-.7c2.2 0 4 .7 5.3 2Zm20.3 16.7c-.5 1-1.4 1.8-2.5 2.4-1.2.6-2.6.9-4.2.9-2.6 0-4.5-.7-5.9-2a7 7 0 0 1-2-5.1c0-2.2.8-3.9 2.5-5s4-1.6 6.8-1.6c1.4 0 2.8.1 4.4.4v-.8a2 2 0 0 0-1.1-1.9 5 5 0 0 0-2.6-.6 7.8 7.8 0 0 0-5 2.1l-3.8-4a13.2 13.2 0 0 1 9.4-3.7 10 10 0 0 1 8.7 4.6c.9 1.4 1.3 3 1.3 4.6v12.5h-6v-2.9Zm-4.1-6.5c-2.4 0-3.6.7-3.6 2.2 0 .8.2 1.4.6 1.9.5.4 1.2.6 2.2.6 1.3 0 2.3-.3 3-1 .7-.6 1-1.5 1-2.7v-.7c-1.3-.2-2.3-.4-3.2-.4ZM115.5 91v6.8h-3.1c-1.6 0-2.8.4-3.5 1.1-.8.8-1.1 2.1-1.1 4v9.6h-7.1V91.4h7v3.3a7 7 0 0 1 2.4-2.9 6.6 6.6 0 0 1 5.4-.8Zm19.7-8.1v29.6h-7.4V82.9h7.4Zm22.6 8.9a7.1 7.1 0 0 1 3.6 6.3v14.4h-7v-12c0-.9-.4-1.6-1-2.3a3.3 3.3 0 0 0-4.8 0 3 3 0 0 0-1 2.4v11.9h-7V91.4h6.9v2.9c.6-1 1.5-1.9 2.7-2.5 1.2-.6 2.5-1 4-1 1.2 0 2.5.4 3.6 1Zm9-4.8c-.8-.8-1.3-1.8-1.3-3s.5-2 1.3-2.9c.8-.8 1.8-1.2 3-1.2s2 .4 2.9 1.2c.8.9 1.2 1.9 1.2 3s-.4 2.1-1.2 3c-.8.8-1.8 1.2-3 1.2s-2-.4-3-1.3Zm6.5 4.3v21.2h-7V91.3h7Zm10 20.3a6.1 6.1 0 0 1-3-5.4v-8.6h-3.7v-6.2h3.7v-6.9h7.1v6.8h5.3v6.3h-5.3v8l.1.4.4.1h5v6.4h-6.4a6 6 0 0 1-3.2-.9Zm14-24.6c-.8-.8-1.2-1.8-1.2-3s.4-2 1.2-2.9c.8-.8 1.8-1.2 3-1.2s2 .4 3 1.2c.7.9 1.1 1.9 1.1 3s-.4 2.1-1.2 3c-.8.8-1.8 1.2-3 1.2s-2-.4-2.9-1.3Zm6.5 4.3v21.2h-7V91.3h7Zm18.5 18.4c-.5 1-1.3 1.8-2.5 2.4-1.2.6-2.6.9-4.2.9-2.6 0-4.5-.7-5.9-2a7 7 0 0 1-2-5.1c0-2.2.8-3.9 2.5-5s4-1.6 6.8-1.6c1.4 0 2.8.1 4.4.4v-.8a2 2 0 0 0-1.1-1.9 5 5 0 0 0-2.6-.6 7.8 7.8 0 0 0-5 2.1l-3.8-4a13.2 13.2 0 0 1 9.4-3.7 9.8 9.8 0 0 1 8.7 4.6c.9 1.4 1.3 3 1.3 4.6v12.5h-6v-2.9Zm-4-6.5c-2.5 0-3.7.7-3.7 2.2 0 .8.2 1.4.7 1.9.4.4 1.1.6 2.1.6 1.3 0 2.3-.3 3-1 .7-.6 1-1.5 1-2.7v-.7c-1.2-.2-2.3-.4-3.2-.4Zm19.4 8.4a6.1 6.1 0 0 1-3-5.4v-8.6h-3.8v-6.2h3.8v-6.9h7v6.8h5.4v6.3h-5.3v8l.1.4.4.1h4.9v6.4h-6.4a6 6 0 0 1-3.1-.9Zm14-24.6c-.9-.8-1.3-1.8-1.3-3s.4-2 1.3-2.9c.8-.8 1.8-1.2 3-1.2s2 .4 2.9 1.2c.8.9 1.2 1.9 1.2 3s-.4 2.1-1.2 3c-.9.8-1.8 1.2-3 1.2s-2.1-.4-3-1.3Zm6.5 4.3v21.2h-7.1V91.3h7.1Zm18.4 21.2h-7.8L261 91.3h7.7l4.1 12.6 4.1-12.6h7.6l-7.8 21.2Zm17.4-6.3c1 .6 2.2 1 3.5 1s2.4-.2 3.5-.6c1.2-.3 2-.8 2.6-1.3l3.9 4.2a10 10 0 0 1-4.2 2.5c-2 .6-4 1-6.1 1-2.4 0-4.5-.6-6.2-1.5a10 10 0 0 1-4.2-3.9c-1-1.7-1.5-3.6-1.5-5.8s.5-4 1.5-5.7c1-1.6 2.4-3 4.1-3.8s3.8-1.4 6-1.4c3.6 0 6.4 1 8.4 2.8 2 2 3 4.6 3 8v2h-15.8c0 1 .5 1.8 1.5 2.5Zm.7-9.5a5 5 0 0 0-1.7 1.2c-.4.6-.6 1-.6 1.5h8.8c0-.9-.4-1.6-1.1-2.3s-1.9-1-3.2-1c-.8 0-1.5.2-2.2.6Zm89.5-88.5A1.9 1.9 0 0 1 387 6c0-.6.4-1.1 1-1.4 1-.4 2 0 2.5 1a1.9 1.9 0 0 1-2.7 2.3 2 2 0 0 1-1.1 1.4c-1 .4-2 0-2.5-1Zm12.4 4a5.5 5.5 0 1 1-7.2-2.9c2.8-1.2 6 0 7.3 2.9Zm-3.3 1.4a1.8 1.8 0 1 0-3.4 1.5 1.8 1.8 0 0 0 3.4-1.5Zm7.1-7.3 2.8 6.3c1.5 3.4.3 7.3-.8 8.7l-3.2-2.3c.8-1.5 1.2-3.6.3-5.6l-2.7-6.3 3.6-.8Zm4.9-1.1L410 5a5.3 5.3 0 0 1 5.4 4l1.4 6-11 .7-.8-3.7 7.1-.4-.4-1.7c-.1-.7-.8-1.2-1.5-1.2l-3.9.2-.8-3.7ZM420 .4l1 15.5-3.7-.4-1-15.5 3.8.4Zm5.7 16.5-3.6-.8-.6-.1-1.6-4.2 2.3.5.2-6.8 3.6.7-.3 10.7Zm-.5 3a2 2 0 0 1-2.2 1.5 2 2 0 0 1-1.5-2.2 2 2 0 0 1 2.2-1.5c1 .3 1.7 1.3 1.5 2.3Z"
    class="cls-1" />
  <path
    d="M467.1 62.2v81H359.4v-81c0-17 8-32.3 20.4-42.2l6.4 6.4a44.8 44.8 0 0 0-17.7 35.8v72H458v-72c0-13.8-6.2-26-16-34.3l2.2-9.7a53.8 53.8 0 0 1 22.8 44Z"
    class="cls-1" />
  <path
    d="m424.8 12 3.2 1.4c0-.6.2-1.2.5-1.8a5.5 5.5 0 0 1 7.1-3c2.8 1.3 4 3.4 3.3 6.3l-1.4 6.4-11.8-4.9-.9-4.4Zm8 3.4 2 .9.5-2.1c.2-.9-.1-1.7-1-2.1-1-.4-2 0-2.5 1s0 2 1 2.4Z"
    class="cls-1" />
</svg>
