<?xml version="1.0" encoding="UTF-8"?>
<svg id="Layer_1" xmlns="http://www.w3.org/2000/svg" viewBox="0 0 467.11 151.1">
  <defs>
    <style>
      .cls-1 {
        fill: #275fa4;
      }
    </style>
  </defs>
  <path class="cls-1" d="M388.17,83.49c1.49-1.37,3.25-2.6,5.28-3.68,1.56-.88,2.83-1.65,3.83-2.31,1-.66,1.9-1.43,2.72-2.31v54.48c0,3.69-.94,7.14-2.82,10.36-1.88,3.22-4.4,5.81-7.57,7.79s-6.61,3.07-10.33,3.27c1.73-1.66,3.11-3.42,4.16-5.28,1.05-1.76,1.73-3.56,2.06-5.41.32-1.85.47-3.99.43-6.42v-45.65c0-1.86.74-3.48,2.23-4.85Z"/>
  <path class="cls-1" d="M410.31,83.49c1.49-1.37,3.23-2.58,5.23-3.63,1.56-.91,2.83-1.7,3.83-2.36s1.9-1.43,2.72-2.31v53.93h-23.15v-8.58h9.14v-32.19c0-1.86.74-3.48,2.23-4.85ZM413.87,60.69c0,1.51-.54,2.8-1.62,3.88s-2.32,1.57-3.81,1.57-2.78-.52-3.86-1.57c-1.05-1.08-1.57-2.38-1.57-3.88s.52-2.8,1.57-3.88c1.08-1.05,2.37-1.57,3.86-1.57s2.76.53,3.81,1.57c1.08,1.08,1.62,2.38,1.62,3.88ZM419.5,49.26c0,1.51-.54,2.8-1.62,3.88s-2.32,1.57-3.81,1.57-2.78-.52-3.86-1.57c-1.05-1.08-1.57-2.38-1.57-3.88s.52-2.8,1.57-3.88c1.08-1.05,2.37-1.57,3.86-1.57s2.76.52,3.81,1.57c1.08,1.08,1.62,2.38,1.62,3.88ZM425.09,60.69c0,1.51-.54,2.8-1.62,3.88s-2.32,1.57-3.81,1.57-2.78-.52-3.86-1.57c-1.05-1.08-1.57-2.38-1.57-3.88s.52-2.8,1.57-3.88c1.08-1.05,2.37-1.57,3.86-1.57s2.76.53,3.81,1.57c1.08,1.08,1.62,2.38,1.62,3.88Z"/>
  <path class="cls-1" d="M443.72,55.64v73.47h-14.01v-60.32c0-1.86.74-3.48,2.23-4.85,1.49-1.37,3.23-2.6,5.23-3.68,1.56-.88,2.83-1.66,3.83-2.34,1-.68,1.9-1.44,2.72-2.29ZM445.5,47.11h-6.3v-8.89l.51.2c.47.2.88.49,1.22.86.51.51.76,1.24.76,2.18v.81c0,.91-.27,1.74-.81,2.49,1.05-.07,2.01-.32,2.89-.76.88-.44,1.54-1.07,1.98-1.88.58-1.02.56-2.1-.05-3.25-.37-.74-.96-1.39-1.78-1.93-.61-.41-1.62-.83-3.05-1.27-.27-.07-.47-.13-.61-.2l-1.78-.56-.86-.3-1.32-.41c-.17-.07-.41-.15-.71-.25s-.53-.17-.66-.2c-.03,0-.07-.02-.1-.05-.34-.07-.51-.12-.51-.15v13.56h-2.08v3.61h13.3v-3.61h-.05Z"/>
  <g>
    <path class="cls-1" d="M156.24,56.12c.65.63.97,1.42.97,2.35s-.32,1.71-.97,2.35c-.65.63-1.42.95-2.32.95h-1.1c-.93,0-1.89-.16-2.87-.46l-.04.46c-.28,2.71-1.3,4.92-3.04,6.66-1.75,1.73-4.2,2.9-7.36,3.49l-2.41-6.21c2.17-.42,3.77-1.02,4.8-1.8,1.03-.78,1.54-2.01,1.54-3.7v-19.57h6.55v11.71c0,.76.28,1.42.85,1.99.56.56,1.23.84,1.99.84h1.1c.9,0,1.68.32,2.32.95Z"/>
    <path class="cls-1" d="M151.44,60.77c-.66-.66-.99-1.44-.99-2.35s.32-1.71.97-2.33c.65-.62,1.44-.93,2.37-.93h5.88c.34,0,.61-.11.82-.32.21-.21.32-.49.32-.82v-13.4h6.59v13.4c0,1.38-.35,2.66-1.04,3.85-.69,1.18-1.63,2.13-2.83,2.83-1.2.7-2.5,1.06-3.91,1.06h-5.83c-.9,0-1.68-.33-2.35-.99ZM160.95,30.71c.72.72,1.08,1.57,1.08,2.56s-.36,1.88-1.08,2.6c-.72.72-1.59,1.08-2.6,1.08s-1.88-.36-2.6-1.08-1.08-1.58-1.08-2.6.36-1.84,1.08-2.56c.72-.72,1.59-1.08,2.6-1.08s1.88.36,2.6,1.08ZM165.43,22.26c.72.72,1.08,1.57,1.08,2.56s-.36,1.88-1.08,2.6c-.72.72-1.59,1.08-2.6,1.08s-1.88-.36-2.6-1.08c-.72-.72-1.08-1.58-1.08-2.6s.36-1.84,1.08-2.56,1.59-1.08,2.6-1.08,1.88.36,2.6,1.08ZM170.08,30.71c.72.72,1.08,1.57,1.08,2.56s-.36,1.88-1.08,2.6c-.72.72-1.59,1.08-2.6,1.08s-1.88-.36-2.6-1.08-1.08-1.58-1.08-2.6.36-1.84,1.08-2.56c.72-.72,1.59-1.08,2.6-1.08s1.88.36,2.6,1.08Z"/>
    <path class="cls-1" d="M173.95,29.89v-3.3h1.4c-.14-.56-.18-1.1-.13-1.61.14-1.1.63-2.02,1.46-2.77.83-.75,1.82-1.12,2.98-1.12.96,0,1.81.22,2.56.68.75.45,1.32,1.11,1.71,1.99l-2.54,1.95c-.31-.51-.56-.85-.76-1.01-.2-.17-.52-.25-.97-.25-.31,0-.57.09-.78.27-.21.18-.32.4-.32.66,0,.28.08.56.23.82s.44.4.87.4h4.23v3.3h-9.93ZM175.39,32.17h6.59v29.59h-6.59v-29.59Z"/>
    <path class="cls-1" d="M210.96,41.91c1.56.89,2.8,2.1,3.7,3.64.9,1.54,1.35,3.22,1.35,5.05v.89c0,1.86-.46,3.57-1.4,5.14-.93,1.56-2.18,2.81-3.76,3.74-1.58.93-3.28,1.4-5.11,1.4s-3.64-.46-5.26-1.38c-1.62-.92-2.91-2.17-3.87-3.76-.96-1.59-1.44-3.3-1.44-5.14v-10.86l10.57-.04c1.92,0,3.66.44,5.22,1.33ZM203.27,30.71c.72.72,1.08,1.57,1.08,2.56s-.36,1.88-1.08,2.6-1.58,1.08-2.6,1.08-1.88-.36-2.6-1.08c-.72-.72-1.08-1.58-1.08-2.6s.36-1.84,1.08-2.56c.72-.72,1.59-1.08,2.6-1.08s1.88.36,2.6,1.08ZM208.45,54.09c.73-.72,1.1-1.63,1.1-2.73v-.42c0-1.01-.38-1.89-1.14-2.64-.76-.75-1.65-1.12-2.66-1.12h-4.02v4.18c0,1.04.39,1.94,1.18,2.68.79.75,1.73,1.12,2.83,1.12s1.97-.36,2.71-1.08ZM212.4,30.71c.72.72,1.08,1.57,1.08,2.56s-.36,1.88-1.08,2.6-1.58,1.08-2.6,1.08-1.88-.36-2.6-1.08c-.72-.72-1.08-1.58-1.08-2.6s.36-1.84,1.08-2.56c.72-.72,1.59-1.08,2.6-1.08s1.88.36,2.6,1.08Z"/>
    <path class="cls-1" d="M228.1,68.48c-1.86,2.06-4.62,3.17-8.29,3.34l-2.41-6.26c1.8-.11,3.2-.35,4.19-.7.99-.35,1.69-.89,2.11-1.61s.63-1.74.63-3.06v-19.57h6.55v19.57c0,3.47-.93,6.23-2.79,8.29Z"/>
    <path class="cls-1" d="M234.06,55.17h12.43c.62,0,1.08-.22,1.4-.68.25-.42.38-.79.38-1.1,0-.14-.01-.25-.04-.34l-3.55-12.43,6.3-1.82,3.64,12.51c.14.59.21,1.28.21,2.07,0,2-.61,3.75-1.82,5.24-.79.99-1.75,1.75-2.9,2.3-1.14.55-2.35.82-3.61.82h-12.43v-6.6Z"/>
    <path class="cls-1" d="M263.74,60.73c-1.18-.69-2.12-1.63-2.81-2.81-.69-1.18-1.04-2.46-1.04-3.85v-21.86h6.59v21.86c0,.28.11.54.34.76.23.23.48.34.76.34h1.86v6.6h-1.86c-1.38,0-2.66-.35-3.85-1.04Z"/>
    <path class="cls-1" d="M286.19,56.12c.65.63.97,1.4.97,2.3s-.32,1.72-.97,2.37c-.65.65-1.44.97-2.37.97h-1.14c-2.11,0-4.04-.66-5.79-1.99-1.61,1.33-3.41,1.99-5.41,1.99h-2.37c-.99,0-1.81-.31-2.47-.93-.66-.62-.99-1.41-.99-2.37s.33-1.75.99-2.37,1.49-.93,2.47-.93h1.61c.68,0,1.25-.24,1.73-.72.48-.48.72-1.06.72-1.73v-7.86h6.64v7.91c.14.68.48,1.25,1.01,1.71.54.46,1.16.7,1.86.7h1.18c.9,0,1.68.32,2.32.95ZM273.82,65.67c.72-.72,1.59-1.08,2.6-1.08s1.88.36,2.6,1.08,1.08,1.57,1.08,2.56-.36,1.88-1.08,2.6-1.59,1.08-2.6,1.08-1.88-.36-2.6-1.08-1.08-1.58-1.08-2.6.36-1.84,1.08-2.56Z"/>
    <path class="cls-1" d="M283.44,55.17h1.18c.48,0,.78-.08.91-.23.13-.15.19-.44.19-.87v-13.44h10.91c2.03,0,3.85.47,5.47,1.42,1.62.95,2.89,2.25,3.82,3.91.93,1.66,1.4,3.52,1.4,5.58v.21c-.03,1.83-.54,3.52-1.54,5.05-1,1.54-2.31,2.75-3.93,3.63-1.62.89-3.36,1.33-5.22,1.33-2.45,0-4.65-.75-6.59-2.24-.73.73-1.56,1.29-2.49,1.67s-1.9.57-2.92.57h-1.23c-.9-.03-1.68-.37-2.33-1.02-.65-.65-.97-1.42-.97-2.32.03-.9.36-1.67.99-2.3.63-.63,1.42-.95,2.35-.95ZM296.63,55.17c1.1,0,2.06-.37,2.89-1.1.83-.73,1.26-1.62,1.29-2.66v-.17c0-1.18-.42-2.16-1.25-2.92-.83-.76-1.88-1.14-3.15-1.14h-4.06v4.44c.06,1.1.49,1.97,1.29,2.6.8.63,1.8.95,2.98.95Z"/>
    <path class="cls-1" d="M9.68,107.84l-1.61,4.65H.25l10.86-29.59h7.82l11.33,29.59h-7.82l-1.65-4.65h-11.12ZM15.26,89.96l-3.3,11.54h6.59l-3.3-11.54Z"/>
    <path class="cls-1" d="M37.2,111.64c-.96-.56-1.71-1.32-2.26-2.28-.55-.96-.82-2-.82-3.13l.04-8.62h-3.72v-6.26h3.72v-6.85h7.1v6.85h5.33v6.26h-5.33v8.03c0,.14.05.26.15.36.1.1.22.15.36.15h4.9v6.34h-6.34c-1.13,0-2.17-.28-3.13-.85Z"/>
    <path class="cls-1" d="M69.43,92.94c1.34,1.34,2.01,3.09,2.01,5.26v14.29h-7.1v-12.43c0-1.02-.29-1.83-.87-2.45-.58-.62-1.33-.93-2.26-.93-1.07,0-1.93.36-2.58,1.08-.65.72-.97,1.66-.97,2.81v11.92h-7.1v-29.59h7.1v10.61c.45-.79,1.27-1.42,2.45-1.88s2.52-.7,4.02-.7c2.2,0,3.97.67,5.31,2.01Z"/>
    <path class="cls-1" d="M89.74,109.66c-.54,1.04-1.39,1.86-2.56,2.45-1.17.59-2.57.89-4.21.89-2.54,0-4.49-.66-5.85-1.97-1.37-1.31-2.05-3.02-2.05-5.14,0-2.23.85-3.88,2.54-4.97s3.95-1.63,6.76-1.63c1.41,0,2.87.13,4.4.38l-.04-.72c0-.87-.36-1.51-1.08-1.92-.72-.41-1.56-.61-2.52-.61-.9,0-1.8.19-2.71.57-.9.38-1.69.89-2.37,1.54l-3.72-4.02c1.32-1.24,2.79-2.16,4.4-2.77s3.27-.91,4.99-.91c1.86,0,3.55.4,5.07,1.2,1.52.8,2.72,1.91,3.59,3.32.87,1.41,1.31,2.97,1.31,4.69v12.43h-5.96v-2.83ZM85.6,103.15c-2.4,0-3.59.76-3.59,2.28,0,.79.21,1.4.63,1.82.42.42,1.16.63,2.2.63,1.27,0,2.25-.32,2.94-.97.69-.65,1.04-1.55,1.04-2.71v-.72c-1.27-.23-2.34-.34-3.21-.34Z"/>
    <path class="cls-1" d="M115.53,91.06v6.72h-3.13c-1.63,0-2.81.39-3.53,1.16-.72.78-1.08,2.07-1.08,3.87v9.68h-7.1v-21.14h6.93v3.3c.59-1.18,1.42-2.12,2.49-2.81,1.07-.69,2.28-1.04,3.64-1.04.62,0,1.21.08,1.78.25Z"/>
    <path class="cls-1" d="M135.15,82.9v29.59h-7.36v-29.59h7.36Z"/>
    <path class="cls-1" d="M157.8,91.8c1.13.63,2.01,1.51,2.66,2.62.65,1.11.97,2.33.97,3.66v14.42h-7.1v-11.92c0-.93-.32-1.72-.97-2.37-.65-.65-1.44-.99-2.37-1.01-.93,0-1.73.33-2.39.99-.66.66-.99,1.46-.99,2.39l.04,11.92h-7.1v-21.14h6.93v2.92c.59-1.04,1.49-1.88,2.71-2.49,1.21-.62,2.52-.93,3.93-.93,1.32,0,2.55.32,3.68.95Z"/>
    <path class="cls-1" d="M166.79,87.04c-.83-.82-1.25-1.8-1.25-2.96s.42-2.14,1.25-2.96c.83-.82,1.82-1.23,2.98-1.23s2.1.42,2.92,1.25c.82.83,1.23,1.81,1.23,2.94s-.41,2.14-1.23,2.96c-.82.82-1.79,1.23-2.92,1.23s-2.15-.41-2.98-1.23ZM173.32,91.35v21.14h-7.1v-21.14h7.1Z"/>
    <path class="cls-1" d="M183.34,111.64c-.96-.56-1.71-1.32-2.26-2.28-.55-.96-.82-2-.82-3.13l.04-8.62h-3.72v-6.26h3.72v-6.85h7.1v6.85h5.33v6.26h-5.33v8.03c0,.14.05.26.15.36.1.1.22.15.36.15h4.9v6.34h-6.34c-1.13,0-2.17-.28-3.13-.85Z"/>
    <path class="cls-1" d="M197.31,87.04c-.83-.82-1.25-1.8-1.25-2.96s.42-2.14,1.25-2.96c.83-.82,1.82-1.23,2.98-1.23s2.1.42,2.92,1.25c.82.83,1.23,1.81,1.23,2.94s-.41,2.14-1.23,2.96c-.82.82-1.79,1.23-2.92,1.23s-2.15-.41-2.98-1.23ZM203.84,91.35v21.14h-7.1v-21.14h7.1Z"/>
    <path class="cls-1" d="M222.35,109.66c-.54,1.04-1.39,1.86-2.56,2.45-1.17.59-2.57.89-4.21.89-2.54,0-4.49-.66-5.85-1.97-1.37-1.31-2.05-3.02-2.05-5.14,0-2.23.85-3.88,2.54-4.97s3.95-1.63,6.76-1.63c1.41,0,2.87.13,4.4.38l-.04-.72c0-.87-.36-1.51-1.08-1.92-.72-.41-1.56-.61-2.52-.61-.9,0-1.8.19-2.71.57-.9.38-1.69.89-2.37,1.54l-3.72-4.02c1.32-1.24,2.79-2.16,4.4-2.77s3.27-.91,4.99-.91c1.86,0,3.55.4,5.07,1.2,1.52.8,2.72,1.91,3.59,3.32.87,1.41,1.31,2.97,1.31,4.69v12.43h-5.96v-2.83ZM218.21,103.15c-2.4,0-3.59.76-3.59,2.28,0,.79.21,1.4.63,1.82.42.42,1.16.63,2.2.63,1.27,0,2.25-.32,2.94-.97.69-.65,1.04-1.55,1.04-2.71v-.72c-1.27-.23-2.34-.34-3.21-.34Z"/>
    <path class="cls-1" d="M237.7,111.64c-.96-.56-1.71-1.32-2.26-2.28-.55-.96-.82-2-.82-3.13l.04-8.62h-3.72v-6.26h3.72v-6.85h7.1v6.85h5.33v6.26h-5.33v8.03c0,.14.05.26.15.36.1.1.22.15.36.15h4.9v6.34h-6.34c-1.13,0-2.17-.28-3.13-.85Z"/>
    <path class="cls-1" d="M251.67,87.04c-.83-.82-1.25-1.8-1.25-2.96s.42-2.14,1.25-2.96c.83-.82,1.82-1.23,2.98-1.23s2.1.42,2.92,1.25c.82.83,1.23,1.81,1.23,2.94s-.41,2.14-1.23,2.96c-.82.82-1.79,1.23-2.92,1.23s-2.15-.41-2.98-1.23ZM258.2,91.35v21.14h-7.1v-21.14h7.1Z"/>
    <path class="cls-1" d="M276.59,112.49h-7.78l-7.86-21.14h7.61l4.14,12.55,4.14-12.55h7.61l-7.86,21.14Z"/>
    <path class="cls-1" d="M294,106.19c1.02.65,2.17.97,3.47.97s2.42-.18,3.55-.53c1.13-.35,1.99-.81,2.58-1.37l3.85,4.23c-.9,1.04-2.3,1.88-4.18,2.49-1.89.62-3.92.93-6.09.93-2.37,0-4.45-.47-6.23-1.4-1.79-.93-3.18-2.23-4.16-3.91-.99-1.68-1.48-3.61-1.48-5.81s.49-4.04,1.48-5.69c.99-1.65,2.36-2.92,4.12-3.83s3.75-1.35,5.98-1.35c3.58,0,6.38.94,8.41,2.81,2.03,1.88,3.04,4.52,3.04,7.93,0,.65-.04,1.34-.13,2.07h-15.73c0,.99.51,1.8,1.52,2.45ZM294.66,96.66c-.69.35-1.24.78-1.65,1.29-.41.51-.61,1-.61,1.48h8.83c0-.9-.39-1.68-1.16-2.32s-1.84-.97-3.19-.97c-.79,0-1.53.18-2.22.53Z"/>
  </g>
  <path class="cls-1" d="M384.24,8.23c-.41-.94.01-2.04.96-2.46.59-.26,1.24-.18,1.75.14.1-.59.5-1.12,1.09-1.38.94-.41,2.05.02,2.46.96.42.95-.03,2.05-.96,2.46-.59.26-1.25.19-1.75-.13-.12.58-.5,1.11-1.09,1.37-.95.42-2.04-.01-2.46-.96ZM396.65,12.15c1.22,2.8-.05,6.03-2.84,7.25-2.77,1.21-6-.06-7.22-2.85-1.21-2.77.06-6,2.83-7.21,2.8-1.22,6.03.05,7.24,2.82ZM393.29,13.63c-.41-.93-1.48-1.35-2.41-.95-.93.41-1.35,1.48-.95,2.41s1.48,1.35,2.41.95c.93-.41,1.35-1.48.95-2.41Z"/>
  <path class="cls-1" d="M400.4,6.28l2.78,6.34c1.49,3.4.28,7.27-.74,8.67l-3.26-2.27c.84-1.52,1.22-3.66.37-5.58l-2.77-6.29,3.62-.87Z"/>
  <path class="cls-1" d="M405.34,5.23l4.54-.26c2.59-.13,4.82,1.61,5.39,4.04l1.43,6.06-10.97.62-.87-3.69,7.17-.4-.4-1.73c-.16-.69-.8-1.19-1.52-1.16l-3.89.22-.87-3.69Z"/>
  <path class="cls-1" d="M420.07.42l1.01,15.48-3.77-.42-1.01-15.48,3.77.42Z"/>
  <path class="cls-1" d="M425.74,16.88l-3.64-.76h0s-.6-.14-.6-.14l-1.62-4.16,2.33.49.19-6.82,3.64.76-.3,10.62ZM425.17,19.96c-.21,1.02-1.21,1.66-2.21,1.44-1.02-.21-1.66-1.2-1.45-2.21.21-1,1.2-1.66,2.21-1.45,1,.21,1.66,1.21,1.45,2.21Z"/>
  <path class="cls-1" d="M467.11,62.16v80.95h-107.66V62.16c0-17.04,7.97-32.25,20.36-42.13l6.42,6.42c-10.79,8.19-17.78,21.15-17.78,35.71v71.95h89.66V62.16c0-13.71-6.2-26.01-15.94-34.24l2.14-9.7c13.78,9.76,22.8,25.81,22.8,43.94Z"/>
  <path class="cls-1" d="M424.83,12.04l3.21,1.33c.04-.58.18-1.16.42-1.73,1.16-2.8,4.37-4.12,7.17-2.96,2.82,1.17,3.94,3.28,3.26,6.27l-1.41,6.39-11.82-4.93-.82-4.39ZM432.82,15.45l2.02.84.48-2.13c.19-.85-.15-1.7-1.09-2.09-.94-.39-2,.05-2.39.99s.05,2.01.99,2.39Z"/>
</svg>